<svg xmlns="http://www.w3.org/2000/svg" viewBox="0 0 100 100">
  <rect width="100" height="100" rx="22" fill="#F9F5F0"/>
  <!-- Material Symbols "spa" path (outlined, weight 300) -->
  <g transform="translate(14, 14) scale(3.0)" fill="#E2979C">
    <path d="M12 22q-1.875 0-3.512-.712t-2.85-1.925q-1.213-1.213-1.925-2.85T3 13q0-1.55.525-3.012T5.1 7.35L12 .45l6.9 6.9q1.05 1.425 1.575 2.938T21 13q0 1.875-.712 3.513t-1.925 2.85q-1.213 1.212-2.85 1.924T12 22Zm0-2q2.925 0 4.963-2.037T19 13q0-1.125-.387-2.225T17.45 8.75L12 3.3 6.55 8.75Q5.6 9.9 5.3 11t-.3 2q0 2.925 2.038 4.963T12 20Zm-.025-3q.425 0 .725-.3t.3-.725q0-.425-.3-.712t-.725-.288q-.4 0-.688.288t-.287.712q0 .425.287.725t.688.3ZM8.5 13.5q.625 0 1.062-.437T10 12q0-.625-.438-1.062T8.5 10.5q-.625 0-1.062.438T7 12q0 .625.438 1.063T8.5 13.5Zm7 0q.625 0 1.062-.437T17 12q0-.625-.438-1.062T15.5 10.5q-.625 0-1.062.438T14 12q0 .625.438 1.063T15.5 13.5ZM12 8q.625 0 1.063-.437T13.5 6.5q0-.625-.437-1.062T12 5q-.625 0-1.062.438T10.5 6.5q0 .625.438 1.063T12 8Zm0 4Z"/>
  </g>
</svg>
